HIERARCHY
ROOT Hips
{
	OFFSET 0.000000 87.230942 0.000000
	CHANNELS 6 Xposition Yposition Zposition Xrotation Yrotation Zrotation
	JOINT Pelvis
	{
		OFFSET 0.000000 0.000000 0.000000
		CHANNELS 3 Xrotation Yrotation Zrotation
		JOINT LeftUpLeg
		{
			OFFSET 12.017000 -9.376404 -2.439400
			CHANNELS 3 Xrotation Yrotation Zrotation
			JOINT LeftLeg
			{
				OFFSET -0.007312 -32.846973 2.110600
				CHANNELS 3 Xrotation Yrotation Zrotation
				JOINT LeftFoot
				{
					OFFSET 0.007312 -32.065170 -0.570400
					CHANNELS 3 Xrotation Yrotation Zrotation
					JOINT LeftToeBase
					{
						OFFSET 0.728300 -11.045900 13.180700
						CHANNELS 3 Xrotation Yrotation Zrotation
						End Site
						{
							OFFSET 0.000000 17.212589 0.000000
						}
					}
				}
				JOINT LeftPantLeg
				{
					OFFSET 0.002788 -16.709013 -3.143600
					CHANNELS 3 Xrotation Yrotation Zrotation
					End Site
					{
						OFFSET -0.605125 24.528742 0.000000
					}
				}
			}
			JOINT Left_Butt
			{
				OFFSET -6.630234 1.326584 -3.183700
				CHANNELS 3 Xrotation Yrotation Zrotation
				End Site
				{
					OFFSET -0.498041 20.188049 0.000000
				}
			}
		}
		JOINT RightUpLeg
		{
			OFFSET -11.717000 -9.376404 -2.439400
			CHANNELS 3 Xrotation Yrotation Zrotation
			JOINT RightLeg
			{
				OFFSET -0.003241 -32.846912 2.110600
				CHANNELS 3 Xrotation Yrotation Zrotation
				JOINT RightFoot
				{
					OFFSET 0.003241 -32.065136 -0.570500
					CHANNELS 3 Xrotation Yrotation Zrotation
					JOINT RightToeBase
					{
						OFFSET -0.728300 -11.045901 13.180700
						CHANNELS 3 Xrotation Yrotation Zrotation
						End Site
						{
							OFFSET 0.000000 17.212593 0.000000
						}
					}
				}
				JOINT RightPantLeg
				{
					OFFSET 0.008142 -16.708982 -3.143700
					CHANNELS 3 Xrotation Yrotation Zrotation
					End Site
					{
						OFFSET 0.605088 24.528715 0.000000
					}
				}
			}
			JOINT Right_Butt
			{
				OFFSET 6.630732 1.326584 -3.183700
				CHANNELS 3 Xrotation Yrotation Zrotation
				End Site
				{
					OFFSET 0.498015 20.188240 0.000000
				}
			}
		}
	}
	JOINT Spine
	{
		OFFSET -0.062400 7.848404 3.918300
		CHANNELS 3 Xrotation Yrotation Zrotation
		JOINT Spine1
		{
			OFFSET -0.072800 11.422302 0.713400
			CHANNELS 3 Xrotation Yrotation Zrotation
			JOINT Spine2
			{
				OFFSET -0.083200 13.054001 -1.931600
				CHANNELS 3 Xrotation Yrotation Zrotation
				JOINT Neck
				{
					OFFSET -0.092200 14.121796 -5.138800
					CHANNELS 3 Xrotation Yrotation Zrotation
					JOINT Head
					{
						OFFSET 0.000200 10.447403 -0.842000
						CHANNELS 3 Xrotation Yrotation Zrotation
						JOINT Visor
						{
							OFFSET 0.457100 25.671204 16.550400
							CHANNELS 3 Xrotation Yrotation Zrotation
							End Site
							{
								OFFSET 0.000000 26.061493 0.000000
							}
						}
						JOINT HairMidA
						{
							OFFSET 0.459400 31.585403 8.437400
							CHANNELS 3 Xrotation Yrotation Zrotation
							End Site
							{
								OFFSET 0.000000 26.061493 0.000000
							}
						}
						JOINT HairMidB
						{
							OFFSET 0.464000 33.309204 -8.389700
							CHANNELS 3 Xrotation Yrotation Zrotation
							End Site
							{
								OFFSET 0.000000 26.061493 0.000000
							}
						}
						JOINT HairMidC
						{
							OFFSET 0.466600 27.991196 -17.375099
							CHANNELS 3 Xrotation Yrotation Zrotation
							End Site
							{
								OFFSET 0.000000 26.061493 0.000000
							}
						}
						JOINT HairMidD
						{
							OFFSET 0.467700 17.888092 -21.169500
							CHANNELS 3 Xrotation Yrotation Zrotation
							End Site
							{
								OFFSET 0.000000 26.061493 0.000000
							}
						}
						JOINT HairMidE
						{
							OFFSET 5.325700 3.514603 -14.369699
							CHANNELS 3 Xrotation Yrotation Zrotation
							End Site
							{
								OFFSET 0.000000 26.061493 0.000000
							}
						}
						JOINT HairMidF
						{
							OFFSET -4.394100 3.514603 -14.372400
							CHANNELS 3 Xrotation Yrotation Zrotation
							End Site
							{
								OFFSET 0.000000 26.061493 0.000000
							}
						}
						JOINT HairLeftA
						{
							OFFSET 15.319900 25.746506 2.623300
							CHANNELS 3 Xrotation Yrotation Zrotation
							End Site
							{
								OFFSET 0.000000 26.061493 0.000000
							}
						}
						JOINT HairLeftB
						{
							OFFSET 12.619500 29.289398 -8.731499
							CHANNELS 3 Xrotation Yrotation Zrotation
							End Site
							{
								OFFSET 0.000000 26.061493 0.000000
							}
						}
						JOINT HairLeftC
						{
							OFFSET 15.714800 15.959900 2.909800
							CHANNELS 3 Xrotation Yrotation Zrotation
							End Site
							{
								OFFSET 0.000000 26.061493 0.000000
							}
						}
						JOINT HairLeftD
						{
							OFFSET 16.101700 18.437408 -7.553200
							CHANNELS 3 Xrotation Yrotation Zrotation
							End Site
							{
								OFFSET 0.000000 26.061493 0.000000
							}
						}
						JOINT HairLeftE
						{
							OFFSET 9.731900 17.915009 -18.316799
							CHANNELS 3 Xrotation Yrotation Zrotation
							End Site
							{
								OFFSET 0.000000 26.061493 0.000000
							}
						}
						JOINT HairLeftF
						{
							OFFSET 11.204300 4.953598 -9.668100
							CHANNELS 3 Xrotation Yrotation Zrotation
							End Site
							{
								OFFSET 0.000000 26.061493 0.000000
							}
						}
						JOINT HairRightA
						{
							OFFSET -14.397900 25.746307 2.615100
							CHANNELS 3 Xrotation Yrotation Zrotation
							End Site
							{
								OFFSET 0.000000 26.061493 0.000000
							}
						}
						JOINT HairRightB
						{
							OFFSET -11.691200 29.289200 -8.738199
							CHANNELS 3 Xrotation Yrotation Zrotation
							End Site
							{
								OFFSET 0.000000 26.061493 0.000000
							}
						}
						JOINT HairRightC
						{
							OFFSET -14.792900 15.959702 2.901400
							CHANNELS 3 Xrotation Yrotation Zrotation
							End Site
							{
								OFFSET 0.000000 26.061493 0.000000
							}
						}
						JOINT HairRightD
						{
							OFFSET -15.174000 18.437195 -7.561900
							CHANNELS 3 Xrotation Yrotation Zrotation
							End Site
							{
								OFFSET 0.000000 26.061493 0.000000
							}
						}
						JOINT HairRightE
						{
							OFFSET -8.798200 17.914902 -18.322001
							CHANNELS 3 Xrotation Yrotation Zrotation
							End Site
							{
								OFFSET 0.000000 26.061493 0.000000
							}
						}
						JOINT HairRightF
						{
							OFFSET -10.275200 4.953506 -9.674099
							CHANNELS 3 Xrotation Yrotation Zrotation
							End Site
							{
								OFFSET 0.000000 26.061493 0.000000
							}
						}
					}
				}
				JOINT LeftShoulder
				{
					OFFSET 5.133500 7.341202 -1.867600
					CHANNELS 3 Xrotation Yrotation Zrotation
					JOINT LeftArm
					{
						OFFSET 8.072663 0.936867 -2.176600
						CHANNELS 3 Xrotation Yrotation Zrotation
						JOINT LeftForeArm
						{
							OFFSET 31.271999 0.000000 0.000000
							CHANNELS 3 Xrotation Yrotation Zrotation
							JOINT LeftHand
							{
								OFFSET 31.771030 0.000000 0.000000
								CHANNELS 3 Xrotation Yrotation Zrotation
								JOINT LeftHandThumb1
								{
									OFFSET 2.886520 -2.557846 4.416640
									CHANNELS 3 Xrotation Yrotation Zrotation
									JOINT LeftHandThumb2
									{
										OFFSET 2.371025 -1.368912 1.368911
										CHANNELS 3 Xrotation Yrotation Zrotation
										JOINT LeftHandThumb3
										{
											OFFSET 2.243378 -1.295212 1.295213
											CHANNELS 3 Xrotation Yrotation Zrotation
											End Site
											{
												OFFSET -0.332611 2.876945 0.020015
											}
										}
									}
								}
								JOINT LeftHandIndex1
								{
									OFFSET 8.568985 -0.641945 3.119977
									CHANNELS 3 Xrotation Yrotation Zrotation
									JOINT LeftHandIndex2
									{
										OFFSET 3.348503 0.000000 0.000000
										CHANNELS 3 Xrotation Yrotation Zrotation
										JOINT LeftHandIndex3
										{
											OFFSET 3.314552 0.000000 0.000000
											CHANNELS 3 Xrotation Yrotation Zrotation
											End Site
											{
												OFFSET -1.032898 3.075485 0.678796
											}
										}
									}
								}
								JOINT LeftHandMiddle1
								{
									OFFSET 8.124603 0.000000 0.000000
									CHANNELS 3 Xrotation Yrotation Zrotation
									JOINT LeftHandMiddle2
									{
										OFFSET 4.166275 0.000000 0.000000
										CHANNELS 3 Xrotation Yrotation Zrotation
										JOINT LeftHandMiddle3
										{
											OFFSET 3.018135 0.000000 0.000000
											CHANNELS 3 Xrotation Yrotation Zrotation
											End Site
											{
												OFFSET -1.032700 2.767982 0.617226
											}
										}
									}
								}
								JOINT LeftHandRing1
								{
									OFFSET 8.571686 -0.031357 -2.884048
									CHANNELS 3 Xrotation Yrotation Zrotation
									JOINT LeftHandRing2
									{
										OFFSET 3.671181 0.000000 0.000000
										CHANNELS 3 Xrotation Yrotation Zrotation
										JOINT LeftHandRing3
										{
											OFFSET 2.728851 0.000000 0.000000
											CHANNELS 3 Xrotation Yrotation Zrotation
											End Site
											{
												OFFSET -0.815796 2.539223 0.577389
											}
										}
									}
								}
								JOINT LeftHandPinky1
								{
									OFFSET 7.854515 -0.675232 -5.213020
									CHANNELS 3 Xrotation Yrotation Zrotation
									JOINT LeftHandPinky2
									{
										OFFSET 3.068596 0.000000 0.000000
										CHANNELS 3 Xrotation Yrotation Zrotation
										JOINT LeftHandPinky3
										{
											OFFSET 2.396042 0.000000 0.000000
											CHANNELS 3 Xrotation Yrotation Zrotation
											End Site
											{
												OFFSET -0.524597 2.267998 0.567429
											}
										}
									}
								}
							}
							JOINT LeftSleeve
							{
								OFFSET 19.684509 -0.200119 0.476146
								CHANNELS 3 Xrotation Yrotation Zrotation
								End Site
								{
									OFFSET -0.031017 25.731133 -0.002868
								}
							}
						}
					}
				}
				JOINT RightShoulder
				{
					OFFSET -4.395900 7.341202 -1.870200
					CHANNELS 3 Xrotation Yrotation Zrotation
					JOINT RightArm
					{
						OFFSET -8.071453 0.936867 -2.181100
						CHANNELS 3 Xrotation Yrotation Zrotation
						JOINT RightForeArm
						{
							OFFSET -31.272011 0.000000 0.000000
							CHANNELS 3 Xrotation Yrotation Zrotation
							JOINT RightHand
							{
								OFFSET -31.771019 0.000000 0.000000
								CHANNELS 3 Xrotation Yrotation Zrotation
								JOINT RightHandThumb1
								{
									OFFSET -2.886520 -2.557808 4.416626
									CHANNELS 3 Xrotation Yrotation Zrotation
									JOINT RightHandThumb2
									{
										OFFSET -2.371056 -1.368927 1.368928
										CHANNELS 3 Xrotation Yrotation Zrotation
										JOINT RightHandThumb3
										{
											OFFSET -2.243362 -1.295204 1.295206
											CHANNELS 3 Xrotation Yrotation Zrotation
											End Site
											{
												OFFSET 0.332642 2.876938 0.020047
											}
										}
									}
								}
								JOINT RightHandIndex1
								{
									OFFSET -8.568993 -0.641953 3.120017
									CHANNELS 3 Xrotation Yrotation Zrotation
									JOINT RightHandIndex2
									{
										OFFSET -3.348518 0.000000 0.000000
										CHANNELS 3 Xrotation Yrotation Zrotation
										JOINT RightHandIndex3
										{
											OFFSET -3.314552 0.000000 0.000000
											CHANNELS 3 Xrotation Yrotation Zrotation
											End Site
											{
												OFFSET 1.032898 3.075478 0.678804
											}
										}
									}
								}
								JOINT RightHandMiddle1
								{
									OFFSET -8.124588 0.000000 0.000000
									CHANNELS 3 Xrotation Yrotation Zrotation
									JOINT RightHandMiddle2
									{
										OFFSET -4.166275 0.000000 0.000000
										CHANNELS 3 Xrotation Yrotation Zrotation
										JOINT RightHandMiddle3
										{
											OFFSET -3.018097 0.000000 0.000000
											CHANNELS 3 Xrotation Yrotation Zrotation
											End Site
											{
												OFFSET 1.032700 2.767937 0.617197
											}
										}
									}
								}
								JOINT RightHandRing1
								{
									OFFSET -8.571747 -0.031349 -2.884061
									CHANNELS 3 Xrotation Yrotation Zrotation
									JOINT RightHandRing2
									{
										OFFSET -3.671204 0.000000 0.000000
										CHANNELS 3 Xrotation Yrotation Zrotation
										JOINT RightHandRing3
										{
											OFFSET -2.728874 0.000000 0.000000
											CHANNELS 3 Xrotation Yrotation Zrotation
											End Site
											{
												OFFSET 0.815804 2.539261 0.577413
											}
										}
									}
								}
								JOINT RightHandPinky1
								{
									OFFSET -7.854561 -0.675247 -5.212970
									CHANNELS 3 Xrotation Yrotation Zrotation
									JOINT RightHandPinky2
									{
										OFFSET -3.068550 0.000000 0.000000
										CHANNELS 3 Xrotation Yrotation Zrotation
										JOINT RightHandPinky3
										{
											OFFSET -2.395981 0.000000 0.000000
											CHANNELS 3 Xrotation Yrotation Zrotation
											End Site
											{
												OFFSET 0.524605 2.267952 0.567413
											}
										}
									}
								}
							}
							JOINT RightSleeve
							{
								OFFSET -19.684753 -0.200165 0.476065
								CHANNELS 3 Xrotation Yrotation Zrotation
								End Site
								{
									OFFSET 0.031342 25.731255 -0.002917
								}
							}
						}
					}
				}
				JOINT Hood
				{
					OFFSET 0.369700 14.447800 -5.317800
					CHANNELS 3 Xrotation Yrotation Zrotation
					JOINT Hood1
					{
						OFFSET 0.001700 -5.553802 -5.895100
						CHANNELS 3 Xrotation Yrotation Zrotation
						JOINT Hood2
						{
							OFFSET -0.000200 -8.380501 0.763600
							CHANNELS 3 Xrotation Yrotation Zrotation
							End Site
							{
								OFFSET 0.000000 8.415215 0.000000
							}
						}
					}
				}
				JOINT Left_Breast
				{
					OFFSET 5.682500 3.120102 3.188800
					CHANNELS 3 Xrotation Yrotation Zrotation
					End Site
					{
						OFFSET 0.000000 10.528564 0.000000
					}
				}
				JOINT Right_Breast
				{
					OFFSET -4.947600 3.120102 3.185900
					CHANNELS 3 Xrotation Yrotation Zrotation
					End Site
					{
						OFFSET 0.000000 10.528564 0.000000
					}
				}
				JOINT Whistle
				{
					OFFSET 0.368200 11.471298 0.095400
					CHANNELS 3 Xrotation Yrotation Zrotation
					JOINT Whistle1
					{
						OFFSET -0.002000 -6.349899 7.479800
						CHANNELS 3 Xrotation Yrotation Zrotation
						JOINT Whistle2
						{
							OFFSET -0.001300 -8.217598 4.717600
							CHANNELS 3 Xrotation Yrotation Zrotation
							End Site
							{
								OFFSET 0.000000 9.475479 0.000000
							}
						}
					}
				}
			}
		}
		JOINT Belly
		{
			OFFSET 0.212400 1.593002 3.163700
			CHANNELS 3 Xrotation Yrotation Zrotation
			End Site
			{
				OFFSET 0.000000 7.496635 0.000000
			}
		}
	}
	JOINT FitGrandmaFacialAnim_Joint
	{
		OFFSET 1.150000 -86.211197 -1.220100
		CHANNELS 3 Xrotation Yrotation Zrotation
		End Site
		{
			OFFSET 0.000000 31.666618 0.000000
		}
	}
}
MOTION
Frames: 4
Frame Time: 0.016667
-2.483379 76.986389 0.995998 3.011894 -58.236119 6.472949 -0.000000 -0.000001 0.000000 -31.698679 10.719019 25.366088 44.300245 -9.062917 -10.058573 -14.565587 -2.375186 -8.844023 0.000000 0.000001 0.000000 -0.000001 -0.000001 0.000000 0.000001 -0.000000 -0.000001 -29.500612 -9.421647 -26.767288 50.828506 3.527998 -7.809746 -25.429696 1.456608 21.715125 -0.000000 0.000001 0.000000 -0.000002 0.000001 -0.000002 0.000001 0.000000 -0.000000 11.191400 0.108762 -2.692050 8.434598 0.027697 -5.592319 8.457028 0.027845 -5.591850 -21.556844 25.063179 12.062628 -0.293119 25.465691 -3.208472 -0.000000 0.000000 0.000001 -0.000000 0.000000 0.000001 -0.000000 0.000000 0.000001 -0.000000 0.000000 0.000001 -0.000000 0.000000 0.000001 -0.000000 0.000000 0.000001 -0.000000 0.000000 0.000001 -0.000000 0.000000 0.000001 -0.000000 0.000000 0.000001 -0.000000 0.000000 0.000001 -0.000000 0.000000 0.000001 -0.000000 0.000000 0.000001 -0.000000 0.000000 0.000001 -0.000000 0.000000 0.000001 -0.000000 0.000000 0.000001 -0.000000 0.000000 0.000001 -0.000000 0.000000 0.000001 -0.000000 0.000000 0.000001 -0.000000 0.000000 0.000001 -6.221666 -11.503855 -4.023822 -23.062127 9.568628 -36.639631 0.046112 -43.169268 -0.011199 22.743712 -5.685823 15.979246 -1.064241 -7.954950 8.490099 2.373407 19.986105 -2.038313 0.000001 -0.000000 -0.000001 13.340895 -1.006661 10.682312 -0.167590 0.303369 -31.105658 0.000000 -0.000002 -0.000002 8.495452 -0.329551 -0.915277 0.231490 0.661255 -29.901872 0.000001 -0.000002 -0.000000 6.111752 3.150928 -16.210928 0.047078 0.322427 -30.125458 -0.000000 0.000003 0.000001 -5.636049 7.709858 -13.878574 0.224353 0.276586 -46.588351 0.000001 -0.000001 -0.000000 0.000001 0.000000 -0.000002 -5.488244 10.658280 2.466539 -41.473800 -26.755524 30.078965 24.955488 111.863124 -23.308476 -8.702482 12.422924 -9.802059 0.265004 10.061070 -10.888472 1.383793 -17.412864 3.016273 -0.000000 0.000002 -0.000003 19.443571 11.174400 -13.340172 -0.118651 -0.322728 18.035596 0.000000 0.000002 -0.000000 4.320445 2.436963 -4.811725 0.349129 -0.461241 26.890332 0.000001 -0.000001 -0.000002 -7.005644 -10.695118 5.719858 0.111875 -0.089234 26.155892 -0.000001 -0.000001 -0.000003 -19.433555 -20.238219 5.987852 0.223803 -0.085738 36.844581 -0.000004 -0.000002 0.000000 0.000000 0.000001 -0.000000 0.000001 -0.000002 -0.000000 0.000001 -0.000002 -0.000000 0.000001 -0.000002 -0.000000 0.000001 -0.000002 -0.000000 0.000001 -0.000002 -0.000000 0.000001 -0.000002 -0.000000 -0.000002 -0.000001 -0.000000 -0.000002 -0.000001 -0.000000 0.000001 0.000001 -0.000000 -0.000000 -0.000001 0.000000 
-2.536377 76.966660 1.021538 1.347532 -58.510365 4.825567 -0.000000 -0.000001 -0.000000 -30.878011 10.729776 25.868255 44.720240 -9.298133 -10.150864 -14.991792 -2.336307 -8.842064 -0.000000 -0.000001 0.000000 0.000001 0.000002 -0.000001 0.000003 -0.000000 -0.000001 -28.659679 -9.787133 -26.710981 50.968975 4.019212 -7.789978 -25.639774 1.474538 21.490748 0.000000 -0.000001 0.000000 -0.000000 0.000001 -0.000001 0.000003 0.000001 -0.000001 10.938370 -0.076807 -2.466709 7.815276 -0.326017 -5.179804 7.841705 -0.289957 -5.218250 -16.952219 25.003601 11.382618 1.554970 25.240424 -5.687664 -0.000000 -0.000000 0.000001 -0.000000 -0.000000 0.000001 -0.000000 -0.000000 0.000001 -0.000000 -0.000000 0.000001 -0.000000 -0.000000 0.000001 -0.000000 -0.000000 0.000001 -0.000000 -0.000000 0.000001 -0.000000 -0.000000 0.000001 -0.000000 -0.000000 0.000001 -0.000000 -0.000000 0.000001 -0.000000 -0.000000 0.000001 -0.000000 -0.000000 0.000001 -0.000000 -0.000000 0.000001 -0.000000 -0.000000 0.000001 -0.000000 -0.000000 0.000001 -0.000000 -0.000000 0.000001 -0.000000 -0.000000 0.000001 -0.000000 -0.000000 0.000001 -0.000000 -0.000000 0.000001 -6.685499 -11.300288 -5.194098 -20.846111 10.084643 -34.890877 4.501465 -44.384543 0.854215 12.301411 -3.504538 18.746820 -0.817782 -7.008236 8.688576 2.795485 20.865755 -1.954407 0.000000 -0.000000 0.000000 13.346471 -1.013385 8.858987 -0.165555 0.304562 -32.928984 0.000000 0.000001 -0.000005 8.466205 -0.311486 -2.738568 0.241797 0.667290 -31.725293 -0.000000 0.000003 0.000003 6.092975 3.171980 -18.033089 0.048040 0.334615 -31.948825 0.000002 0.000001 0.000003 -5.643690 7.720597 -15.700940 0.231593 0.282290 -48.411725 -0.000001 -0.000001 0.000002 0.000001 0.000001 0.000002 -5.634364 10.125341 2.634042 -41.005608 -24.756268 29.332179 24.443664 110.510323 -22.235754 -0.953727 8.719417 -11.067490 0.356412 9.641545 -10.977426 1.570919 -17.798320 2.977742 -0.000002 0.000001 -0.000002 19.447937 11.177506 -10.409359 -0.115843 -0.325260 20.967279 0.000003 0.000003 0.000000 4.273844 2.408374 -1.878583 0.365315 -0.471723 29.822095 -0.000001 -0.000001 -0.000005 -7.029088 -10.720210 8.646960 0.112291 -0.108830 29.087488 0.000004 -0.000001 0.000003 -19.442325 -20.249296 8.916419 0.233705 -0.096671 39.776262 -0.000001 -0.000001 0.000001 0.000001 -0.000001 -0.000000 -0.000001 0.000002 -0.000000 -0.000001 0.000002 -0.000000 -0.000001 0.000002 -0.000000 -0.000001 0.000002 -0.000000 -0.000001 0.000002 -0.000000 -0.000001 0.000002 0.000000 -0.000001 -0.000004 0.000001 -0.000001 -0.000004 0.000001 -0.000000 -0.000000 0.000000 -0.000000 -0.000001 -0.000000 
-2.667885 76.918961 1.200653 -0.232097 -58.887815 3.238895 0.000000 -0.000001 0.000000 -30.013108 10.738370 26.372627 45.396695 -9.468866 -10.273367 -15.736334 -2.284187 -8.825982 -0.000000 0.000001 0.000000 -0.000000 0.000000 0.000000 -0.000002 0.000003 0.000003 -27.794485 -10.127065 -26.751547 51.064810 4.673425 -7.752973 -25.901677 1.472806 21.304024 -0.000000 0.000001 -0.000000 0.000002 0.000001 -0.000001 0.000001 -0.000000 -0.000001 10.330885 -0.485258 -1.902440 6.356271 -1.115946 -4.166068 6.388319 -1.004136 -4.289069 -6.596748 24.682769 10.020961 5.771840 24.455035 -11.198029 0.000002 -0.000000 0.000000 0.000002 -0.000000 0.000000 0.000002 -0.000000 0.000000 0.000002 -0.000000 0.000000 0.000002 -0.000000 0.000000 0.000002 -0.000000 0.000000 0.000002 -0.000000 0.000000 0.000002 -0.000000 0.000000 0.000002 -0.000000 0.000000 0.000002 -0.000000 0.000000 0.000002 -0.000000 0.000000 0.000002 -0.000000 0.000000 0.000002 -0.000000 0.000000 0.000002 -0.000000 0.000000 0.000002 -0.000000 0.000000 0.000002 -0.000000 0.000000 0.000002 -0.000000 0.000000 0.000002 -0.000000 0.000000 0.000002 -0.000000 0.000000 -7.444593 -11.224855 -7.938095 -17.825469 12.833939 -32.921191 9.087179 -48.058297 1.764690 2.793997 0.641299 21.567482 -0.555614 -5.986849 8.898259 3.257395 21.811545 -1.869782 0.000001 0.000001 -0.000001 13.352262 -1.020803 6.893190 -0.163308 0.305693 -34.894965 0.000000 0.000002 -0.000001 8.435339 -0.291023 -4.704294 0.253160 0.673437 -33.691332 0.000000 -0.000003 0.000001 6.073464 3.195270 -19.997744 0.049529 0.347751 -33.914690 0.000002 -0.000003 -0.000002 -5.651541 7.732436 -17.665770 0.239511 0.288158 -50.377713 -0.000001 0.000004 0.000002 -0.000000 -0.000001 -0.000000 -5.983471 8.827080 3.075373 -38.745880 -19.254850 28.391998 20.208634 109.867506 -16.299862 7.140801 4.709836 -11.433873 0.455352 9.184280 -11.073772 1.772483 -18.218575 2.932614 -0.000001 0.000002 0.000001 19.452483 11.181116 -7.215362 -0.112651 -0.327790 24.162122 -0.000001 -0.000000 0.000001 4.224813 2.374540 1.317749 0.383436 -0.482143 33.017046 -0.000000 0.000000 0.000000 -7.053135 -10.748746 11.837134 0.113809 -0.130192 32.282257 -0.000000 0.000002 0.000002 -19.451211 -20.261795 12.108202 0.245142 -0.108068 42.971070 -0.000002 0.000002 0.000000 -0.000001 0.000004 0.000002 0.000003 0.000003 -0.000001 0.000003 0.000003 -0.000001 0.000003 0.000003 -0.000001 0.000003 0.000003 -0.000001 0.000003 0.000003 -0.000001 0.000002 0.000003 -0.000000 0.000001 -0.000000 0.000000 0.000001 -0.000000 0.000000 0.000002 0.000001 0.000000 0.000000 -0.000001 0.000000 
-3.044722 76.883263 1.598468 -1.829488 -58.831035 1.709607 0.000000 0.000001 0.000000 -28.996301 10.815966 26.737733 45.985881 -10.023712 -10.431473 -16.659076 -2.247614 -8.647878 0.000000 -0.000002 0.000000 -0.000000 0.000001 0.000001 -0.000001 0.000003 0.000003 -26.388255 -10.644700 -26.978156 50.953085 5.058240 -7.720281 -26.459764 1.336445 21.396136 -0.000000 0.000001 0.000000 0.000000 -0.000001 0.000001 0.000001 0.000001 -0.000001 9.558230 -0.945614 -1.155386 4.553880 -2.005576 -2.831332 4.585551 -1.818083 -3.044916 5.236365 23.944289 8.810547 10.649097 23.072820 -17.338748 0.000001 0.000000 -0.000001 0.000001 0.000000 -0.000001 0.000001 0.000000 -0.000001 0.000001 0.000000 -0.000001 0.000001 0.000000 -0.000001 0.000001 0.000000 -0.000001 0.000001 0.000000 -0.000001 0.000001 0.000000 -0.000001 0.000001 0.000000 -0.000001 0.000001 0.000000 -0.000001 0.000001 0.000000 -0.000001 0.000001 0.000000 -0.000001 0.000001 0.000000 -0.000001 0.000001 0.000000 -0.000001 0.000001 0.000000 -0.000001 0.000001 0.000000 -0.000001 0.000001 0.000000 -0.000001 0.000001 0.000000 -0.000001 0.000001 0.000000 -0.000001 -8.310472 -11.099476 -11.307728 -14.786344 15.433454 -31.237208 14.384674 -52.081388 3.335678 -5.543223 5.381387 24.045259 -0.295231 -4.957890 9.104978 3.727179 22.762635 -1.791833 0.000001 0.000002 -0.000001 13.357832 -1.028519 4.914097 -0.161037 0.306735 -36.874149 -0.000001 -0.000001 0.000000 8.404993 -0.269308 -6.683300 0.264755 0.679248 -35.670646 0.000003 0.000000 0.000000 6.054691 3.219391 -21.975628 0.051448 0.360835 -35.893836 -0.000001 0.000002 -0.000001 -5.658988 7.744611 -19.643904 0.247706 0.293859 -52.356918 -0.000001 0.000001 0.000000 -0.000001 -0.000003 0.000006 -6.427615 7.045149 3.807187 -35.653813 -12.738082 26.064700 13.821629 110.918475 -7.469507 13.357303 1.174515 -10.753089 0.549462 8.746529 -11.165471 1.973940 -18.616003 2.888139 0.000001 0.000006 -0.000002 19.456636 11.184776 -4.158321 -0.109468 -0.330055 27.220013 -0.000004 0.000002 0.000004 4.179707 2.339669 4.376953 0.401399 -0.491179 36.075010 -0.000002 0.000002 0.000001 -7.074588 -10.777300 14.890793 0.116402 -0.150519 35.340027 -0.000000 0.000001 -0.000000 -19.458984 -20.274196 15.163314 0.256650 -0.118248 46.028962 -0.000004 0.000000 0.000002 -0.000000 0.000000 -0.000000 0.000001 0.000000 -0.000000 0.000001 0.000000 -0.000000 0.000001 0.000000 -0.000000 0.000001 0.000000 -0.000000 0.000001 0.000000 -0.000000 0.000001 0.000000 0.000000 0.000000 0.000002 -0.000000 0.000000 0.000002 -0.000000 0.000000 0.000001 -0.000000 0.000000 0.000001 0.000000 
